<?xml version="1.0" encoding="UTF-8" standalone="no"?>
<!-- Created with Inkscape (http://www.inkscape.org/) -->
<svg
   xmlns:svg="http://www.w3.org/2000/svg"
   xmlns="http://www.w3.org/2000/svg"
   version="1.0"
   width="800"
   height="430"
   id="svg2">
  <defs
     id="defs4" />
  <g
     id="layer1">
    <path
       d="M 277.1606,407.75858 A 18.056477,18.056477 0 1 1 241.04765,407.75858 A 18.056477,18.056477 0 1 1 277.1606,407.75858 z"
       transform="matrix(7.6358336,0,0,7.6358336,-1329.4256,-2897.14)"
       id="path3201"
       style="fill:#fefe6a;fill-opacity:1;fill-rule:nonzero;stroke:#000000;stroke-width:3;stroke-linecap:butt;stroke-linejoin:miter;stroke-miterlimit:4;stroke-dasharray:none;stroke-opacity:1" />
    <path
       d="M 257.71518,405.10693 A 4.2931485,4.2931485 0 1 1 249.12888,405.10693 A 4.2931485,4.2931485 0 1 1 257.71518,405.10693 z"
       transform="matrix(7.6358336,0,0,7.6358336,-1331.3539,-2893.2834)"
       id="path3203"
       style="fill:#000000;fill-opacity:1;fill-rule:nonzero;stroke:none;stroke-width:3;stroke-linecap:butt;stroke-linejoin:miter;stroke-miterlimit:4;stroke-dasharray:none;stroke-opacity:1" />
    <path
       d="M 257.71518,405.10693 A 4.2931485,4.2931485 0 1 1 249.12888,405.10693 A 4.2931485,4.2931485 0 1 1 257.71518,405.10693 z"
       transform="matrix(7.6358336,0,0,7.6358336,-1240.7221,-2893.2834)"
       id="path3205"
       style="fill:#000000;fill-opacity:1;fill-rule:nonzero;stroke:none;stroke-width:3;stroke-linecap:butt;stroke-linejoin:miter;stroke-miterlimit:4;stroke-dasharray:none;stroke-opacity:1" />
    <path
       d="M 277.1606,407.75858 A 18.056477,18.056477 0 1 1 241.04765,407.75858 A 18.056477,18.056477 0 1 1 277.1606,407.75858 z"
       transform="matrix(7.6358336,0,0,7.6358336,-1826.9371,-2960.7753)"
       id="path2396"
       style="fill:#9aceee;fill-opacity:1;fill-rule:nonzero;stroke:#000000;stroke-width:3;stroke-linecap:butt;stroke-linejoin:miter;stroke-miterlimit:4;stroke-dasharray:none;stroke-opacity:1" />
    <path
       d="M 257.71518,405.10693 A 4.2931485,4.2931485 0 1 1 249.12888,405.10693 A 4.2931485,4.2931485 0 1 1 257.71518,405.10693 z"
       transform="matrix(7.6358336,0,0,7.6358336,-1828.8654,-2956.9186)"
       id="path3168"
       style="fill:#000000;fill-opacity:1;fill-rule:nonzero;stroke:none;stroke-width:3;stroke-linecap:butt;stroke-linejoin:miter;stroke-miterlimit:4;stroke-dasharray:none;stroke-opacity:1" />
    <path
       d="M 257.71518,405.10693 A 4.2931485,4.2931485 0 1 1 249.12888,405.10693 A 4.2931485,4.2931485 0 1 1 257.71518,405.10693 z"
       transform="matrix(7.6358336,0,0,7.6358336,-1738.2336,-2956.9186)"
       id="path3170"
       style="fill:#000000;fill-opacity:1;fill-rule:nonzero;stroke:none;stroke-width:3;stroke-linecap:butt;stroke-linejoin:miter;stroke-miterlimit:4;stroke-dasharray:none;stroke-opacity:1" />
    <path
       d="M 277.1606,407.75858 A 18.056477,18.056477 0 1 1 241.04765,407.75858 A 18.056477,18.056477 0 1 1 277.1606,407.75858 z"
       transform="matrix(7.6358336,0,0,7.6358336,-1687.1871,-2835.4332)"
       id="path3193"
       style="fill:#fe6666;fill-opacity:1;fill-rule:nonzero;stroke:#000000;stroke-width:3;stroke-linecap:butt;stroke-linejoin:miter;stroke-miterlimit:4;stroke-dasharray:none;stroke-opacity:1" />
    <path
       d="M 257.71518,405.10693 A 4.2931485,4.2931485 0 1 1 249.12888,405.10693 A 4.2931485,4.2931485 0 1 1 257.71518,405.10693 z"
       transform="matrix(7.6358336,0,0,7.6358336,-1689.1155,-2831.5764)"
       id="path3195"
       style="fill:#000000;fill-opacity:1;fill-rule:nonzero;stroke:none;stroke-width:3;stroke-linecap:butt;stroke-linejoin:miter;stroke-miterlimit:4;stroke-dasharray:none;stroke-opacity:1" />
    <path
       d="M 257.71518,405.10693 A 4.2931485,4.2931485 0 1 1 249.12888,405.10693 A 4.2931485,4.2931485 0 1 1 257.71518,405.10693 z"
       transform="matrix(7.6358336,0,0,7.6358336,-1598.4835,-2831.5764)"
       id="path3197"
       style="fill:#000000;fill-opacity:1;fill-rule:nonzero;stroke:none;stroke-width:3;stroke-linecap:butt;stroke-linejoin:miter;stroke-miterlimit:4;stroke-dasharray:none;stroke-opacity:1" />
    <path
       d="M 277.1606,407.75858 A 18.056477,18.056477 0 1 1 241.04765,407.75858 A 18.056477,18.056477 0 1 1 277.1606,407.75858 z"
       transform="matrix(7.6358336,0,0,7.6358336,-1517.4388,-2960.7753)"
       id="path3185"
       style="fill:#32ce9a;fill-opacity:1;fill-rule:nonzero;stroke:#000000;stroke-width:3;stroke-linecap:butt;stroke-linejoin:miter;stroke-miterlimit:4;stroke-dasharray:none;stroke-opacity:1" />
    <path
       d="M 257.71518,405.10693 A 4.2931485,4.2931485 0 1 1 249.12888,405.10693 A 4.2931485,4.2931485 0 1 1 257.71518,405.10693 z"
       transform="matrix(7.6358336,0,0,7.6358336,-1519.3671,-2956.9186)"
       id="path3187"
       style="fill:#000000;fill-opacity:1;fill-rule:nonzero;stroke:none;stroke-width:3;stroke-linecap:butt;stroke-linejoin:miter;stroke-miterlimit:4;stroke-dasharray:none;stroke-opacity:1" />
    <path
       d="M 257.71518,405.10693 A 4.2931485,4.2931485 0 1 1 249.12888,405.10693 A 4.2931485,4.2931485 0 1 1 257.71518,405.10693 z"
       transform="matrix(7.6358336,0,0,7.6358336,-1428.7352,-2956.9186)"
       id="path3189"
       style="fill:#000000;fill-opacity:1;fill-rule:nonzero;stroke:none;stroke-width:3;stroke-linecap:butt;stroke-linejoin:miter;stroke-miterlimit:4;stroke-dasharray:none;stroke-opacity:1" />
  </g>
</svg>
