<?xml version="1.0" encoding="UTF-8"?>
<!DOCTYPE svg PUBLIC "-//W3C//DTD SVG 1.1//EN" "http://www.w3.org/Graphics/SVG/1.1/DTD/svg11.dtd">
<svg width="160mm" height="90mm" viewBox="0 0 16000 9000" version="1.1" xmlns="http://www.w3.org/2000/svg" xmlns:xlink="http://www.w3.org/1999/xlink" stroke-width="28.222" stroke-linejoin="round" xml:space="preserve">
 <path fill="rgb(29,31,33)" stroke="none" d="M 7999,8975 L 0,8975 0,0 15997,0 15997,8975 7999,8975 Z"/>
 <path fill="rgb(0,69,134)" stroke="none" d="M 6895,1245 C 6499,1245 6105,1307 5728,1429 5352,1552 4996,1733 4676,1966 4355,2198 4073,2480 3841,2801 3608,3121 3427,3477 3304,3853 3182,4230 3120,4623 3120,5019 3120,5405 3179,5788 3295,6156 L 6895,5019 6895,5019 6895,5019 6895,5019 6895,5019 6895,5019 6895,5019 6895,1245 Z"/>
 <path fill="rgb(255,66,14)" stroke="none" d="M 3295,6156 C 3298,6166 3301,6176 3304,6186 3427,6562 3608,6918 3841,7238 4073,7559 4355,7841 4676,8073 4996,8306 5352,8487 5728,8610 6105,8732 6499,8795 6895,8795 7291,8795 7685,8732 8061,8610 8437,8487 8793,8306 9113,8073 9335,7912 9539,7727 9721,7522 L 6895,5019 6895,5019 6895,5019 6895,5019 6895,5019 6895,5019 6895,5019 6895,5019 6895,5019 3295,6156 Z"/>
 <path fill="rgb(255,211,32)" stroke="none" d="M 9721,7522 C 9801,7431 9877,7336 9948,7238 10181,6918 10362,6562 10485,6186 10607,5809 10670,5415 10670,5019 10670,4623 10607,4230 10485,3853 10362,3477 10181,3121 9948,2801 9716,2480 9434,2198 9113,1966 8793,1733 8437,1552 8061,1429 7685,1307 7291,1245 6895,1245 L 6895,5019 6895,5019 6895,5019 6895,5019 6895,5019 6895,5019 6895,5019 6895,5019 6895,5019 9721,7522 Z"/>
 <text class="SVGTextShape"><tspan class="TextParagraph" font-family="Liberation Sans, sans-serif" font-size="459px" font-weight="400"><tspan class="TextPosition" x="7189" y="844"><tspan fill="rgb(255,255,255)" stroke="none">Top OS&apos;</tspan></tspan></tspan></text>
 <path fill="rgb(0,69,134)" stroke="none" d="M 14013,4073 L 13907,4073 13907,3862 14118,3862 14118,4073 14013,4073 Z"/>
 <path fill="rgb(255,66,14)" stroke="none" d="M 14013,4592 L 13907,4592 13907,4382 14118,4382 14118,4592 14013,4592 Z"/>
 <path fill="rgb(255,211,32)" stroke="none" d="M 14013,5112 L 13907,5112 13907,4901 14118,4901 14118,5112 14013,5112 Z"/>
 <text class="SVGTextShape"><tspan class="TextParagraph" font-family="Liberation Sans, sans-serif" font-size="353px" font-weight="400"><tspan class="TextPosition" x="14218" y="4093"><tspan fill="rgb(255,255,255)" stroke="none">Mac</tspan></tspan></tspan></text>
 <text class="SVGTextShape"><tspan class="TextParagraph" font-family="Liberation Sans, sans-serif" font-size="353px" font-weight="400"><tspan class="TextPosition" x="14218" y="4612"><tspan fill="rgb(255,255,255)" stroke="none">Windows</tspan></tspan></tspan></text>
 <text class="SVGTextShape"><tspan class="TextParagraph" font-family="Liberation Sans, sans-serif" font-size="353px" font-weight="400"><tspan class="TextPosition" x="14218" y="5132"><tspan fill="rgb(255,255,255)" stroke="none">Linux</tspan></tspan></tspan></text>
</svg>